<?xml version="1.0" standalone="no"?>
<!DOCTYPE svg PUBLIC "-//W3C//DTD SVG 20010904//EN"
 "http://www.w3.org/TR/2001/REC-SVG-20010904/DTD/svg10.dtd">
<svg version="1.0" xmlns="http://www.w3.org/2000/svg"
 width="128.000000pt" height="128.000000pt" viewBox="0 0 128.000000 128.000000"
 preserveAspectRatio="xMidYMid meet">

<g transform="translate(0.000000,128.000000) scale(0.100000,-0.100000)"
fill="#000000" stroke="none">
<path d="M572 1245 c-125 -34 -250 -149 -312 -288 -29 -62 -26 -87 8 -87 23 0
32 9 55 55 33 62 104 132 168 167 37 19 59 23 140 23 94 0 98 -1 190 -47 52
-25 96 -45 98 -43 2 2 -13 30 -32 62 -83 135 -194 191 -315 158z"/>
<path d="M870 1206 c0 -4 14 -27 30 -51 17 -25 43 -71 59 -104 19 -41 44 -72
82 -103 101 -83 145 -216 104 -315 -8 -20 -13 -38 -11 -41 3 -2 30 21 60 51
64 66 92 134 82 204 -14 108 -144 271 -259 327 -54 27 -147 47 -147 32z"/>
<path d="M526 1076 c-57 -21 -102 -71 -148 -163 -34 -68 -42 -96 -46 -157 -5
-78 4 -166 17 -166 4 0 13 24 20 53 23 95 90 216 156 282 53 55 84 74 175 112
l25 11 -38 16 c-55 24 -116 28 -161 12z"/>
<path d="M130 952 c-45 -45 -80 -91 -98 -129 -63 -135 -20 -285 124 -429 41
-41 79 -74 85 -74 5 0 -9 28 -32 61 -80 118 -127 253 -115 332 7 47 38 105 67
125 11 7 19 25 19 40 0 15 6 52 14 82 8 30 13 57 10 59 -2 2 -35 -28 -74 -67z"/>
<path d="M732 1008 c-44 -7 -100 -36 -122 -63 -11 -14 -10 -14 14 -5 15 5 55
10 89 10 147 -1 222 -86 257 -293 l16 -99 38 42 c95 105 88 214 -20 308 -96
85 -181 116 -272 100z"/>
<path d="M666 903 c-25 -6 -96 -53 -96 -63 0 -4 25 -10 55 -14 84 -10 203 -51
246 -86 22 -17 39 -28 39 -25 0 20 -54 106 -87 137 -54 52 -97 66 -157 51z"/>
<path d="M493 808 c-53 -88 -75 -149 -77 -210 -2 -94 46 -138 169 -158 73 -12
205 -5 205 11 0 5 -6 9 -12 9 -24 0 -133 58 -161 85 -70 67 -105 165 -93 261
3 30 5 54 3 54 -1 0 -17 -24 -34 -52z"/>
<path d="M231 799 c-89 -64 -101 -160 -38 -293 36 -75 95 -161 104 -153 3 3
11 50 17 103 12 91 12 101 -6 142 -24 55 -33 134 -20 190 12 52 2 54 -57 11z"/>
<path d="M596 761 c-9 -10 -20 -32 -25 -48 l-9 -30 69 31 c69 31 69 31 48 49
-28 22 -62 22 -83 -2z"/>
<path d="M762 679 l2 -62 28 32 c31 35 27 60 -12 81 -19 10 -20 7 -18 -51z"/>
<path d="M875 611 c-65 -34 -156 -35 -230 -3 l-50 22 49 -46 c67 -62 120 -87
183 -88 61 -1 97 26 108 80 10 58 -3 66 -60 35z"/>
<path d="M1254 619 c-10 -12 -44 -41 -75 -65 -48 -37 -57 -49 -63 -84 -8 -50
-44 -125 -83 -170 -42 -50 -129 -101 -222 -130 l-83 -26 38 -17 c92 -40 214
-48 279 -18 104 47 192 229 224 461 5 36 8 66 6 68 -1 1 -10 -7 -21 -19z"/>
<path d="M1039 525 c-53 -60 -166 -111 -313 -140 l-30 -6 30 -20 c73 -48 185
-64 242 -35 51 26 111 154 100 213 -3 17 -6 15 -29 -12z"/>
<path d="M360 418 c1 -117 28 -171 105 -211 54 -28 163 -28 269 2 94 26 119
37 96 44 -73 23 -120 46 -166 83 -39 32 -63 44 -86 44 -42 0 -100 27 -161 74
-26 20 -49 36 -52 36 -3 0 -5 -33 -5 -72z"/>
<path d="M307 263 c-9 -56 10 -112 52 -154 63 -64 184 -88 401 -81 l75 3 -75
35 c-41 19 -82 42 -92 51 -10 9 -26 13 -40 10 -34 -9 -154 11 -196 32 -46 23
-76 55 -100 105 l-19 39 -6 -40z"/>
</g>
</svg>
